<svg xmlns="http://www.w3.org/2000/svg" width="1180" height="1577">
<rect width="100%" height="100%" fill="white"/>
<style>text{font-family:Arial,sans-serif;fill:#172033}.label{font-size:16px}.small{font-size:13px}.title{font-size:22px;font-weight:700}</style>
<text x="28" y="34" class="title">AF3 oligomer screen</text>
<rect x="245" y="18" width="16" height="16" fill="#2563eb" rx="3"/>
<text x="267" y="31" class="small">median ipTM</text>
<rect x="430" y="18" width="16" height="16" fill="#f59e0b" rx="3"/>
<text x="452" y="31" class="small">weak-chain ipTM</text>
<rect x="615" y="18" width="16" height="16" fill="#16a34a" rx="3"/>
<text x="637" y="31" class="small">all-chain fraction</text>
<rect x="800" y="18" width="16" height="16" fill="#7c3aed" rx="3"/>
<text x="822" y="31" class="small">OVA pLDDT / 100</text>
<rect x="985" y="18" width="16" height="16" fill="#0891b2" rx="3"/>
<text x="1007" y="31" class="small">interface consistency</text>
<line x1="245.0" y1="58" x2="245.0" y2="1552" stroke="#e5e7eb"/>
<text x="238.0" y="76" class="small">0.0</text>
<line x1="385.0" y1="58" x2="385.0" y2="1552" stroke="#e5e7eb"/>
<text x="378.0" y="76" class="small">0.2</text>
<line x1="525.0" y1="58" x2="525.0" y2="1552" stroke="#e5e7eb"/>
<text x="518.0" y="76" class="small">0.4</text>
<line x1="665.0" y1="58" x2="665.0" y2="1552" stroke="#e5e7eb"/>
<text x="658.0" y="76" class="small">0.6</text>
<line x1="805.0" y1="58" x2="805.0" y2="1552" stroke="#e5e7eb"/>
<text x="798.0" y="76" class="small">0.8</text>
<line x1="945.0" y1="58" x2="945.0" y2="1552" stroke="#e5e7eb"/>
<text x="938.0" y="76" class="small">1.0</text>
<text x="28" y="120" class="label">ova_body_c4_01</text>
<rect x="245" y="95" width="588.0" height="12" fill="#2563eb" rx="3"/>
<text x="839.0" y="106" class="small">0.84</text>
<rect x="245" y="112" width="581.0" height="12" fill="#f59e0b" rx="3"/>
<text x="832.0" y="123" class="small">0.83</text>
<rect x="245" y="129" width="700.0" height="12" fill="#16a34a" rx="3"/>
<text x="951.0" y="140" class="small">1.00</text>
<rect x="245" y="146" width="631.7" height="12" fill="#7c3aed" rx="3"/>
<text x="882.7" y="157" class="small">0.90</text>
<rect x="245" y="163" width="572.7" height="12" fill="#0891b2" rx="3"/>
<text x="823.7" y="174" class="small">0.82</text>
<text x="28" y="212" class="label">ova_body_c4_09</text>
<rect x="245" y="187" width="196.0" height="12" fill="#2563eb" rx="3"/>
<text x="447.0" y="198" class="small">0.28</text>
<rect x="245" y="204" width="217.0" height="12" fill="#f59e0b" rx="3"/>
<text x="468.0" y="215" class="small">0.31</text>
<rect x="245" y="221" width="700.0" height="12" fill="#16a34a" rx="3"/>
<text x="951.0" y="232" class="small">1.00</text>
<rect x="245" y="238" width="587.9" height="12" fill="#7c3aed" rx="3"/>
<text x="838.9" y="249" class="small">0.84</text>
<rect x="245" y="255" width="512.8" height="12" fill="#0891b2" rx="3"/>
<text x="763.8" y="266" class="small">0.73</text>
<text x="28" y="304" class="label">ova_body_c4_17</text>
<rect x="245" y="279" width="217.0" height="12" fill="#2563eb" rx="3"/>
<text x="468.0" y="290" class="small">0.31</text>
<rect x="245" y="296" width="266.0" height="12" fill="#f59e0b" rx="3"/>
<text x="517.0" y="307" class="small">0.38</text>
<rect x="245" y="313" width="700.0" height="12" fill="#16a34a" rx="3"/>
<text x="951.0" y="324" class="small">1.00</text>
<rect x="245" y="330" width="583.9" height="12" fill="#7c3aed" rx="3"/>
<text x="834.9" y="341" class="small">0.83</text>
<rect x="245" y="347" width="505.3" height="12" fill="#0891b2" rx="3"/>
<text x="756.3" y="358" class="small">0.72</text>
<text x="28" y="396" class="label">ova_body_c4_25</text>
<rect x="245" y="371" width="574.0" height="12" fill="#2563eb" rx="3"/>
<text x="825.0" y="382" class="small">0.82</text>
<rect x="245" y="388" width="546.0" height="12" fill="#f59e0b" rx="3"/>
<text x="797.0" y="399" class="small">0.78</text>
<rect x="245" y="405" width="700.0" height="12" fill="#16a34a" rx="3"/>
<text x="951.0" y="416" class="small">1.00</text>
<rect x="245" y="422" width="632.5" height="12" fill="#7c3aed" rx="3"/>
<text x="883.5" y="433" class="small">0.90</text>
<rect x="245" y="439" width="640.4" height="12" fill="#0891b2" rx="3"/>
<text x="891.4" y="450" class="small">0.91</text>
<text x="28" y="488" class="label">ova_body_c4_33</text>
<rect x="245" y="463" width="259.0" height="12" fill="#2563eb" rx="3"/>
<text x="510.0" y="474" class="small">0.37</text>
<rect x="245" y="480" width="308.0" height="12" fill="#f59e0b" rx="3"/>
<text x="559.0" y="491" class="small">0.44</text>
<rect x="245" y="497" width="700.0" height="12" fill="#16a34a" rx="3"/>
<text x="951.0" y="508" class="small">1.00</text>
<rect x="245" y="514" width="604.1" height="12" fill="#7c3aed" rx="3"/>
<text x="855.1" y="525" class="small">0.86</text>
<rect x="245" y="531" width="463.3" height="12" fill="#0891b2" rx="3"/>
<text x="714.3" y="542" class="small">0.66</text>
<text x="28" y="580" class="label">ova_body_c4_41</text>
<rect x="245" y="555" width="567.0" height="12" fill="#2563eb" rx="3"/>
<text x="818.0" y="566" class="small">0.81</text>
<rect x="245" y="572" width="546.0" height="12" fill="#f59e0b" rx="3"/>
<text x="797.0" y="583" class="small">0.78</text>
<rect x="245" y="589" width="700.0" height="12" fill="#16a34a" rx="3"/>
<text x="951.0" y="600" class="small">1.00</text>
<rect x="245" y="606" width="628.0" height="12" fill="#7c3aed" rx="3"/>
<text x="879.0" y="617" class="small">0.90</text>
<rect x="245" y="623" width="594.2" height="12" fill="#0891b2" rx="3"/>
<text x="845.2" y="634" class="small">0.85</text>
<text x="28" y="672" class="label">ova_body_c4_49</text>
<rect x="245" y="647" width="210.0" height="12" fill="#2563eb" rx="3"/>
<text x="461.0" y="658" class="small">0.30</text>
<rect x="245" y="664" width="196.0" height="12" fill="#f59e0b" rx="3"/>
<text x="447.0" y="675" class="small">0.28</text>
<rect x="245" y="681" width="700.0" height="12" fill="#16a34a" rx="3"/>
<text x="951.0" y="692" class="small">1.00</text>
<rect x="245" y="698" width="600.2" height="12" fill="#7c3aed" rx="3"/>
<text x="851.2" y="709" class="small">0.86</text>
<rect x="245" y="715" width="430.9" height="12" fill="#0891b2" rx="3"/>
<text x="681.9" y="726" class="small">0.62</text>
<text x="28" y="764" class="label">ova_body_c4_57</text>
<rect x="245" y="739" width="266.0" height="12" fill="#2563eb" rx="3"/>
<text x="517.0" y="750" class="small">0.38</text>
<rect x="245" y="756" width="245.0" height="12" fill="#f59e0b" rx="3"/>
<text x="496.0" y="767" class="small">0.35</text>
<rect x="245" y="773" width="700.0" height="12" fill="#16a34a" rx="3"/>
<text x="951.0" y="784" class="small">1.00</text>
<rect x="245" y="790" width="604.6" height="12" fill="#7c3aed" rx="3"/>
<text x="855.6" y="801" class="small">0.86</text>
<rect x="245" y="807" width="473.5" height="12" fill="#0891b2" rx="3"/>
<text x="724.5" y="818" class="small">0.68</text>
<text x="28" y="856" class="label">ova_body_c4_65</text>
<rect x="245" y="831" width="567.0" height="12" fill="#2563eb" rx="3"/>
<text x="818.0" y="842" class="small">0.81</text>
<rect x="245" y="848" width="546.0" height="12" fill="#f59e0b" rx="3"/>
<text x="797.0" y="859" class="small">0.78</text>
<rect x="245" y="865" width="700.0" height="12" fill="#16a34a" rx="3"/>
<text x="951.0" y="876" class="small">1.00</text>
<rect x="245" y="882" width="630.1" height="12" fill="#7c3aed" rx="3"/>
<text x="881.1" y="893" class="small">0.90</text>
<rect x="245" y="899" width="665.0" height="12" fill="#0891b2" rx="3"/>
<text x="916.0" y="910" class="small">0.95</text>
<text x="28" y="948" class="label">ova_body_c4_73</text>
<rect x="245" y="923" width="595.0" height="12" fill="#2563eb" rx="3"/>
<text x="846.0" y="934" class="small">0.85</text>
<rect x="245" y="940" width="574.0" height="12" fill="#f59e0b" rx="3"/>
<text x="825.0" y="951" class="small">0.82</text>
<rect x="245" y="957" width="700.0" height="12" fill="#16a34a" rx="3"/>
<text x="951.0" y="968" class="small">1.00</text>
<rect x="245" y="974" width="636.4" height="12" fill="#7c3aed" rx="3"/>
<text x="887.4" y="985" class="small">0.91</text>
<rect x="245" y="991" width="682.5" height="12" fill="#0891b2" rx="3"/>
<text x="933.5" y="1002" class="small">0.97</text>
<text x="28" y="1040" class="label">ova_body_c4_81</text>
<rect x="245" y="1015" width="588.0" height="12" fill="#2563eb" rx="3"/>
<text x="839.0" y="1026" class="small">0.84</text>
<rect x="245" y="1032" width="567.0" height="12" fill="#f59e0b" rx="3"/>
<text x="818.0" y="1043" class="small">0.81</text>
<rect x="245" y="1049" width="700.0" height="12" fill="#16a34a" rx="3"/>
<text x="951.0" y="1060" class="small">1.00</text>
<rect x="245" y="1066" width="629.9" height="12" fill="#7c3aed" rx="3"/>
<text x="880.9" y="1077" class="small">0.90</text>
<rect x="245" y="1083" width="646.8" height="12" fill="#0891b2" rx="3"/>
<text x="897.8" y="1094" class="small">0.92</text>
<text x="28" y="1132" class="label">ova_body_c4_89</text>
<rect x="245" y="1107" width="553.0" height="12" fill="#2563eb" rx="3"/>
<text x="804.0" y="1118" class="small">0.79</text>
<rect x="245" y="1124" width="532.0" height="12" fill="#f59e0b" rx="3"/>
<text x="783.0" y="1135" class="small">0.76</text>
<rect x="245" y="1141" width="700.0" height="12" fill="#16a34a" rx="3"/>
<text x="951.0" y="1152" class="small">1.00</text>
<rect x="245" y="1158" width="626.6" height="12" fill="#7c3aed" rx="3"/>
<text x="877.6" y="1169" class="small">0.90</text>
<rect x="245" y="1175" width="612.6" height="12" fill="#0891b2" rx="3"/>
<text x="863.6" y="1186" class="small">0.88</text>
<text x="28" y="1224" class="label">ova_body_c4_97</text>
<rect x="245" y="1199" width="588.0" height="12" fill="#2563eb" rx="3"/>
<text x="839.0" y="1210" class="small">0.84</text>
<rect x="245" y="1216" width="567.0" height="12" fill="#f59e0b" rx="3"/>
<text x="818.0" y="1227" class="small">0.81</text>
<rect x="245" y="1233" width="700.0" height="12" fill="#16a34a" rx="3"/>
<text x="951.0" y="1244" class="small">1.00</text>
<rect x="245" y="1250" width="632.6" height="12" fill="#7c3aed" rx="3"/>
<text x="883.6" y="1261" class="small">0.90</text>
<rect x="245" y="1267" width="587.4" height="12" fill="#0891b2" rx="3"/>
<text x="838.4" y="1278" class="small">0.84</text>
<text x="28" y="1316" class="label">ova_body_c4_105</text>
<rect x="245" y="1291" width="567.0" height="12" fill="#2563eb" rx="3"/>
<text x="818.0" y="1302" class="small">0.81</text>
<rect x="245" y="1308" width="546.0" height="12" fill="#f59e0b" rx="3"/>
<text x="797.0" y="1319" class="small">0.78</text>
<rect x="245" y="1325" width="700.0" height="12" fill="#16a34a" rx="3"/>
<text x="951.0" y="1336" class="small">1.00</text>
<rect x="245" y="1342" width="629.9" height="12" fill="#7c3aed" rx="3"/>
<text x="880.9" y="1353" class="small">0.90</text>
<rect x="245" y="1359" width="665.0" height="12" fill="#0891b2" rx="3"/>
<text x="916.0" y="1370" class="small">0.95</text>
<text x="28" y="1408" class="label">ova_body_c4_113</text>
<rect x="245" y="1383" width="357.0" height="12" fill="#2563eb" rx="3"/>
<text x="608.0" y="1394" class="small">0.51</text>
<rect x="245" y="1400" width="357.0" height="12" fill="#f59e0b" rx="3"/>
<text x="608.0" y="1411" class="small">0.51</text>
<rect x="245" y="1417" width="700.0" height="12" fill="#16a34a" rx="3"/>
<text x="951.0" y="1428" class="small">1.00</text>
<rect x="245" y="1434" width="613.1" height="12" fill="#7c3aed" rx="3"/>
<text x="864.1" y="1445" class="small">0.88</text>
<rect x="245" y="1451" width="548.9" height="12" fill="#0891b2" rx="3"/>
<text x="799.9" y="1462" class="small">0.78</text>
<text x="28" y="1500" class="label">ova_body_c4_121</text>
<rect x="245" y="1475" width="581.0" height="12" fill="#2563eb" rx="3"/>
<text x="832.0" y="1486" class="small">0.83</text>
<rect x="245" y="1492" width="553.0" height="12" fill="#f59e0b" rx="3"/>
<text x="804.0" y="1503" class="small">0.79</text>
<rect x="245" y="1509" width="700.0" height="12" fill="#16a34a" rx="3"/>
<text x="951.0" y="1520" class="small">1.00</text>
<rect x="245" y="1526" width="631.3" height="12" fill="#7c3aed" rx="3"/>
<text x="882.3" y="1537" class="small">0.90</text>
<rect x="245" y="1543" width="665.8" height="12" fill="#0891b2" rx="3"/>
<text x="916.8" y="1554" class="small">0.95</text>
</svg>
